<svg width="485" height="348" viewBox="0 0 485 348" fill="none" xmlns="http://www.w3.org/2000/svg">
<path fill-rule="evenodd" clip-rule="evenodd" d="M0 6.13835e-05H484.487V347.177H0V6.13835e-05Z" fill="#FFFF00"/>
<path fill-rule="evenodd" clip-rule="evenodd" d="M172.928 239.177H233.045V222.414H194.894V201.604H230.155V185.419H194.894V167.499H231.889V151.314H172.928V239.177Z" fill="black"/>
<path fill-rule="evenodd" clip-rule="evenodd" d="M383.915 175.014H385.071L396.632 206.807H371.776L383.915 175.014ZM334.781 239.177H357.903L364.839 221.836H402.412L408.771 239.177H431.314L398.366 151.314H372.354C371.647 152.02 338.601 230.133 334.781 239.177" fill="black"/>
<path fill-rule="evenodd" clip-rule="evenodd" d="M259.057 239.177H281.023V185.997L305.301 216.055H307.035L331.313 185.997L332.468 236.864L354.435 188.887V151.314H334.203L306.735 185.997H306.392L278.71 151.314H259.057V239.177Z" fill="black"/>
<path fill-rule="evenodd" clip-rule="evenodd" d="M236.513 239.177H255.589V171.546H236.513V239.177Z" fill="black"/>
<path fill-rule="evenodd" clip-rule="evenodd" d="M212.236 66.3417H211.657V68.0757H210.502V70.3873H209.923V71.5442H209.345V72.1217H208.767V75.0122H208.189V76.1685H207.611V87.7289H208.189V88.8854H208.767V91.7756H209.345V93.5097H209.923V94.6654H210.502V95.2437H211.079V96.9778H212.236V98.134H212.813V99.2905H213.97V100.446H214.547V101.024H215.126V101.602H215.704V102.758H216.282V103.336H216.86V103.914H217.439V104.493H218.016V105.07H218.594V105.648H219.173V106.227H219.75V106.805H220.328V107.382H221.484V108.539H222.641V109.117H223.219V109.695H223.796V110.273H224.953V110.851H225.53V111.429H226.109V112.007H227.265V112.585H227.843V113.164H228.421V113.741H229.577V114.898H230.733V116.053H231.889V116.632H233.045V117.787H234.779V118.366H235.357V119.522H236.513V120.1H237.091V120.678H237.669V121.256H238.247V121.834H238.825V122.412H239.404V122.99H239.982V123.568H240.559V124.146H241.138V124.724H241.716V125.88H242.293V127.036H243.45V127.614H244.028V129.348H244.606V131.661H245.762V133.973H246.34V147.268H247.496V146.112H248.074V145.534H248.653V144.955H249.23V144.378H249.808V142.066H250.387V140.909H250.964V139.753H251.543V138.597H252.121V136.863H252.698V133.395H253.277V128.192H252.698V125.88H252.121V123.568H251.543V121.256H250.964V120.1H250.387V119.522H249.808V118.943H249.23V116.632H248.653V116.053H248.074V115.475H247.496V114.898H246.918V113.741H246.34V113.164H245.762V112.007H244.606V111.429H244.028V110.851H243.45V110.273H242.872V109.695H242.293V109.117H241.716V108.539H241.138V107.961H240.559V107.382H239.982V106.805H238.825V105.648H238.247V105.07H237.669V104.493H236.513V103.336H235.357V102.758H234.201V101.602H233.045V101.024H231.889V99.8679H230.733V98.7118H230.155V98.134H228.421V97.5561H227.843V96.9778H226.687V96.3998H226.109V95.2437H224.953V94.6654H223.796V93.5097H222.641V92.9314H222.062V92.3539H221.484V91.1973H220.328V90.0412H219.75V88.8854H218.594V87.7289H218.016V86.5731H216.86V85.4169H216.282V84.2608H215.704V83.105H215.126V82.5264H214.547V79.6365H213.97V73.2782H213.391V69.2318H212.813V65.7634H212.236V66.3417Z" fill="#FF0000"/>
<path fill-rule="evenodd" clip-rule="evenodd" d="M204.143 21.2543H204.721V21.8322H205.299V23.5662H205.877V24.144H206.455V25.3003H207.611V26.4568H208.189V27.6126H209.345V28.7683H209.923V29.9252H210.502V30.5027H211.079V31.6592H211.657V32.2368H212.236V33.3934H212.813V34.5491H213.391V36.8613H213.97V38.0172H214.547V40.9074H215.126V42.6415H215.704V70.3873H216.282V72.7H216.86V76.7464H217.439V78.4804H218.016V80.7924H218.594V81.3707H219.173V82.5264H219.75V84.2608H220.907V85.417H221.484V86.5732H222.062V87.1515H222.641V87.729H223.219V88.8855H223.796V89.4633H224.375V90.0412H224.953V90.6195H225.53V91.1973H226.109V91.7756H226.687V92.354H228.421V92.9315H228.999V93.5098H230.155V94.088H230.733V94.6655H232.467V95.2437H233.623V95.822H234.201V96.3999H236.513V96.9779H237.669V97.5562H238.825V98.134H241.716V97.5562H241.138V96.3999H239.982V95.2437H239.404V94.6655H238.247V93.5098H237.669V92.354H236.513V91.7756H235.936V91.1973H235.357V89.4633H234.779V88.8855H233.623V87.729H233.045V87.1515H232.467V85.995H231.889V84.2608H230.733V82.5264H230.155V80.7924H229.577V79.6366H228.999V77.3243H228.421V51.8903H227.843V45.532H227.265V44.9537H226.687V42.6415H226.109V40.9074H225.53V39.1733H224.953V38.0172H224.375V36.8613H223.796V35.7048H223.219V34.5491H222.641V33.3934H222.062V32.2368H221.484V31.0807H220.328V29.9252H219.75V29.3466H219.173V28.7683H218.594V28.1908H218.016V27.6126H217.439V27.0343H216.86V25.8785H215.704V25.3003H215.126V24.7227H214.547V24.144H213.391V23.5662H212.236V22.9887H211.079V22.41H209.345V21.8322H208.767V21.2543H207.611V20.676H205.877V20.0977H204.143V21.2543Z" fill="#FF0000"/>
<path fill-rule="evenodd" clip-rule="evenodd" d="M234.779 58.8272H234.201V59.4052H233.045V61.1392H232.467V62.8736H231.889V64.6076H231.311V66.9192H230.733V76.1685H231.311V77.3243H231.889V79.6366H232.467V80.7924H233.045V81.9489H234.201V83.1051H234.779V83.6829H235.357V85.417H235.935V85.995H237.091V86.5732H237.669V87.1515H238.247V87.729H238.825V88.3072H239.404V88.8855H239.982V90.0412H240.559V90.6195H241.138V91.1973H242.293V91.7756H242.872V92.354H244.027V93.5098H244.606V94.088H245.762V95.2437H246.34V95.822H246.918V96.3999H247.496V96.9779H248.074V98.134H249.23V98.7119H249.808V99.2906H250.387V100.446H250.964V101.602H252.121V102.759H252.698V103.914H253.277V104.493H253.855V105.071H254.433V106.227H255.011V107.383H255.589V107.961H256.167V110.273H256.745V110.851H257.323V113.164H257.901V113.741H259.635V109.695H260.214V107.383H260.792V101.025H260.214V95.822H259.635V95.2437H259.057V93.5098H258.479V91.7756H257.323V90.6195H256.745V88.8855H255.589V87.729H255.011V86.5732H254.433V85.995H253.855V85.417H252.698V84.2608H251.543V83.1051H250.964V82.5264H250.387V81.9489H249.23V80.7924H248.074V79.6366H246.918V79.0583H246.34V77.9025H245.184V77.3243H244.606V76.1685H244.027V75.5899H243.45V75.0123H242.293V74.434H241.716V73.2783H241.138V72.7H240.559V71.5443H239.982V70.3873H239.404V69.2319H238.825V66.9192H238.247V65.7635H237.669V64.6076H237.091V62.8736H236.513V61.1392H235.935V58.8272H235.357V58.2487H234.779V58.8272Z" fill="#FF0000"/>
<path fill-rule="evenodd" clip-rule="evenodd" d="M235.935 158.251H255.589V151.314H235.935V158.251Z" fill="#FF0000"/>
<path fill-rule="evenodd" clip-rule="evenodd" d="M236.513 167.499H255.011V161.141H236.513V167.499Z" fill="#FF0000"/>
<path d="M119.228 223.099H131.953C137.609 223.099 141.722 222.327 144.165 220.656C146.607 219.114 147.764 216.414 147.764 212.815C147.764 209.087 146.478 206.26 143.908 204.46C141.337 202.661 137.352 201.761 131.825 201.761H119.228V223.099ZM130.54 186.079C134.524 186.079 137.481 185.307 139.409 183.765C141.465 182.351 142.365 180.037 142.365 176.952C142.365 173.611 141.337 171.039 139.409 169.369C137.481 167.697 134.524 166.926 130.54 166.926H119.228V186.079H130.54ZM97.119 239.166V151.373H129.511C141.08 151.373 149.82 153.301 155.605 157.029C161.518 160.885 164.474 166.412 164.474 173.867C164.474 177.724 163.446 181.194 161.518 184.151C159.461 187.107 156.633 189.421 152.777 191.092C158.947 193.02 163.574 195.848 166.531 199.704C169.487 203.432 171.03 208.188 171.03 213.972C171.03 222.456 168.202 228.754 162.418 232.867C156.633 237.109 147.892 239.166 136.324 239.166H97.119Z" fill="black"/>
<path d="M128.676 261.484C128.362 260.392 127.921 259.428 127.352 258.59C126.784 257.737 126.088 257.019 125.265 256.436C124.458 255.838 123.53 255.381 122.483 255.067C121.451 254.753 120.307 254.596 119.05 254.596C116.702 254.596 114.638 255.18 112.858 256.346C111.093 257.513 109.717 259.211 108.729 261.439C107.742 263.653 107.249 266.361 107.249 269.562C107.249 272.763 107.735 275.485 108.707 277.729C109.679 279.972 111.055 281.685 112.835 282.867C114.615 284.034 116.717 284.617 119.14 284.617C121.339 284.617 123.216 284.228 124.772 283.45C126.342 282.657 127.539 281.543 128.362 280.107C129.199 278.671 129.618 276.973 129.618 275.014L131.593 275.306H119.746V267.991H138.975V273.78C138.975 277.818 138.122 281.289 136.417 284.191C134.711 287.077 132.363 289.306 129.371 290.877C126.38 292.432 122.954 293.21 119.095 293.21C114.787 293.21 111.003 292.26 107.742 290.361C104.481 288.446 101.938 285.731 100.114 282.216C98.3037 278.686 97.3987 274.498 97.3987 269.651C97.3987 265.927 97.9372 262.606 99.0142 259.689C100.106 256.758 101.632 254.275 103.591 252.24C105.551 250.206 107.832 248.658 110.435 247.596C113.037 246.534 115.857 246.003 118.893 246.003C121.496 246.003 123.919 246.384 126.163 247.147C128.407 247.895 130.396 248.957 132.131 250.333C133.881 251.709 135.31 253.347 136.417 255.247C137.524 257.132 138.234 259.211 138.548 261.484H128.676ZM146.272 292.582V246.631H164.401C167.872 246.631 170.833 247.252 173.286 248.493C175.754 249.72 177.632 251.462 178.918 253.721C180.219 255.965 180.87 258.605 180.87 261.641C180.87 264.693 180.212 267.318 178.896 269.517C177.579 271.701 175.672 273.376 173.174 274.543C170.691 275.709 167.685 276.293 164.154 276.293H152.016V268.485H162.584C164.439 268.485 165.979 268.23 167.206 267.722C168.432 267.213 169.345 266.45 169.943 265.433C170.556 264.416 170.863 263.152 170.863 261.641C170.863 260.116 170.556 258.829 169.943 257.782C169.345 256.735 168.425 255.942 167.183 255.404C165.957 254.85 164.409 254.574 162.539 254.574H155.987V292.582H146.272ZM171.088 271.671L182.508 292.582H171.783L160.609 271.671H171.088ZM229.962 269.607C229.962 274.617 229.012 278.88 227.113 282.396C225.228 285.911 222.655 288.596 219.394 290.451C216.149 292.29 212.499 293.21 208.445 293.21C204.362 293.21 200.697 292.283 197.451 290.428C194.205 288.573 191.64 285.888 189.755 282.373C187.87 278.858 186.928 274.602 186.928 269.607C186.928 264.596 187.87 260.333 189.755 256.817C191.64 253.302 194.205 250.625 197.451 248.785C200.697 246.93 204.362 246.003 208.445 246.003C212.499 246.003 216.149 246.93 219.394 248.785C222.655 250.625 225.228 253.302 227.113 256.817C229.012 260.333 229.962 264.596 229.962 269.607ZM220.112 269.607C220.112 266.361 219.626 263.623 218.654 261.395C217.697 259.166 216.343 257.476 214.593 256.324C212.843 255.172 210.794 254.596 208.445 254.596C206.097 254.596 204.047 255.172 202.297 256.324C200.547 257.476 199.186 259.166 198.214 261.395C197.257 263.623 196.778 266.361 196.778 269.607C196.778 272.852 197.257 275.59 198.214 277.818C199.186 280.047 200.547 281.737 202.297 282.889C204.047 284.041 206.097 284.617 208.445 284.617C210.794 284.617 212.843 284.041 214.593 282.889C216.343 281.737 217.697 280.047 218.654 277.818C219.626 275.59 220.112 272.852 220.112 269.607ZM265.542 246.631H275.257V276.472C275.257 279.823 274.457 282.755 272.856 285.268C271.271 287.781 269.049 289.74 266.192 291.146C263.335 292.537 260.007 293.233 256.208 293.233C252.394 293.233 249.058 292.537 246.201 291.146C243.344 289.74 241.123 287.781 239.537 285.268C237.952 282.755 237.159 279.823 237.159 276.472V246.631H246.874V275.642C246.874 277.392 247.256 278.948 248.018 280.309C248.796 281.67 249.888 282.74 251.294 283.517C252.7 284.295 254.338 284.684 256.208 284.684C258.093 284.684 259.731 284.295 261.122 283.517C262.528 282.74 263.612 281.67 264.375 280.309C265.153 278.948 265.542 277.392 265.542 275.642V246.631ZM283.25 292.582V246.631H301.379C304.865 246.631 307.834 247.297 310.287 248.628C312.74 249.944 314.61 251.777 315.896 254.125C317.197 256.458 317.848 259.151 317.848 262.202C317.848 265.254 317.19 267.946 315.874 270.28C314.557 272.613 312.65 274.43 310.152 275.732C307.669 277.033 304.663 277.684 301.133 277.684H289.577V269.898H299.562C301.432 269.898 302.972 269.577 304.184 268.933C305.411 268.275 306.323 267.37 306.921 266.219C307.535 265.052 307.841 263.713 307.841 262.202C307.841 260.677 307.535 259.345 306.921 258.209C306.323 257.057 305.411 256.167 304.184 255.539C302.957 254.895 301.402 254.574 299.517 254.574H292.965V292.582H283.25Z" fill="black"/>
</svg>
