<svg width="335" height="274" viewBox="0 0 335 274" fill="none" xmlns="http://www.w3.org/2000/svg">
<path fill-rule="evenodd" clip-rule="evenodd" d="M75.8091 219.177H135.926V202.414H97.7751V181.604H133.036V165.419H97.7751V147.499H134.77V131.314H75.8091V219.177Z" fill="black"/>
<path fill-rule="evenodd" clip-rule="evenodd" d="M286.796 155.014H287.952L299.513 186.807H274.657L286.796 155.014ZM237.662 219.177H260.784L267.72 201.836H305.293L311.652 219.177H334.195L301.247 131.314H275.235C274.528 132.02 241.482 210.133 237.662 219.177Z" fill="black"/>
<path fill-rule="evenodd" clip-rule="evenodd" d="M161.938 219.177H183.904V165.997L208.182 196.055H209.916L234.194 165.997L235.349 216.864L257.316 168.887V131.314H237.084L209.616 165.997H209.273L181.591 131.314H161.938V219.177Z" fill="black"/>
<path fill-rule="evenodd" clip-rule="evenodd" d="M139.394 219.177H158.47V151.546H139.394V219.177Z" fill="black"/>
<path fill-rule="evenodd" clip-rule="evenodd" d="M115.117 46.3417H114.538V48.0757H113.383V50.3873H112.804V51.5442H112.226V52.1217H111.648V55.0122H111.07V56.1685H110.492V67.7289H111.07V68.8854H111.648V71.7756H112.226V73.5097H112.804V74.6654H113.383V75.2437H113.96V76.9778H115.117V78.134H115.694V79.2905H116.851V80.446H117.428V81.024H118.007V81.602H118.585V82.758H119.163V83.336H119.741V83.914H120.32V84.493H120.897V85.07H121.475V85.648H122.054V86.227H122.631V86.805H123.209V87.382H124.365V88.539H125.522V89.117H126.1V89.695H126.677V90.273H127.834V90.851H128.411V91.429H128.99V92.007H130.146V92.585H130.724V93.164H131.302V93.741H132.458V94.898H133.614V96.053H134.77V96.632H135.926V97.787H137.66V98.366H138.238V99.522H139.394V100.1H139.972V100.678H140.55V101.256H141.128V101.834H141.706V102.412H142.285V102.99H142.863V103.568H143.44V104.146H144.019V104.724H144.597V105.88H145.174V107.036H146.331V107.614H146.909V109.348H147.487V111.661H148.643V113.973H149.221V127.268H150.377V126.112H150.955V125.534H151.534V124.955H152.111V124.378H152.689V122.066H153.268V120.909H153.845V119.753H154.424V118.597H155.002V116.863H155.579V113.395H156.158V108.192H155.579V105.88H155.002V103.568H154.424V101.256H153.845V100.1H153.268V99.522H152.689V98.943H152.111V96.632H151.534V96.053H150.955V95.475H150.377V94.898H149.799V93.741H149.221V93.164H148.643V92.007H147.487V91.429H146.909V90.851H146.331V90.273H145.753V89.695H145.174V89.117H144.597V88.539H144.019V87.961H143.44V87.382H142.863V86.805H141.706V85.648H141.128V85.07H140.55V84.493H139.394V83.336H138.238V82.758H137.082V81.602H135.926V81.024H134.77V79.8679H133.614V78.7118H133.036V78.134H131.302V77.5561H130.724V76.9778H129.568V76.3998H128.99V75.2437H127.834V74.6654H126.677V73.5097H125.522V72.9314H124.943V72.3539H124.365V71.1973H123.209V70.0412H122.631V68.8854H121.475V67.7289H120.897V66.5731H119.741V65.4169H119.163V64.2608H118.585V63.105H118.007V62.5264H117.428V59.6365H116.851V53.2782H116.272V49.2318H115.694V45.7634H115.117V46.3417Z" fill="#FF0000"/>
<path fill-rule="evenodd" clip-rule="evenodd" d="M107.024 1.25426H107.602V1.83216H108.18V3.56616H108.758V4.14396H109.336V5.30026H110.492V6.45676H111.07V7.61256H112.226V8.76826H112.804V9.92516H113.383V10.5027H113.96V11.6592H114.538V12.2368H115.117V13.3934H115.694V14.5491H116.272V16.8613H116.851V18.0172H117.428V20.9074H118.007V22.6415H118.585V50.3873H119.163V52.7H119.741V56.7464H120.32V58.4804H120.897V60.7924H121.475V61.3707H122.054V62.5264H122.631V64.2608H123.788V65.417H124.365V66.5732H124.943V67.1515H125.522V67.729H126.1V68.8855H126.677V69.4633H127.256V70.0412H127.834V70.6195H128.411V71.1973H128.99V71.7756H129.568V72.354H131.302V72.9315H131.88V73.5098H133.036V74.088H133.614V74.6655H135.348V75.2437H136.504V75.822H137.082V76.3999H139.394V76.9779H140.55V77.5562H141.706V78.134H144.597V77.5562H144.019V76.3999H142.863V75.2437H142.285V74.6655H141.128V73.5098H140.55V72.354H139.394V71.7756H138.817V71.1973H138.238V69.4633H137.66V68.8855H136.504V67.729H135.926V67.1515H135.348V65.995H134.77V64.2608H133.614V62.5264H133.036V60.7924H132.458V59.6366H131.88V57.3243H131.302V31.8903H130.724V25.532H130.146V24.9537H129.568V22.6415H128.99V20.9074H128.411V19.1733H127.834V18.0172H127.256V16.8613H126.677V15.7048H126.1V14.5491H125.522V13.3934H124.943V12.2368H124.365V11.0807H123.209V9.92516H122.631V9.34656H122.054V8.76826H121.475V8.19076H120.897V7.61256H120.32V7.03426H119.741V5.87846H118.585V5.30026H118.007V4.72266H117.428V4.14396H116.272V3.56616H115.117V2.98866H113.96V2.40996H112.226V1.83216H111.648V1.25426H110.492V0.675957H108.758V0.0976562H107.024V1.25426Z" fill="#FF0000"/>
<path fill-rule="evenodd" clip-rule="evenodd" d="M137.66 38.8272H137.082V39.4052H135.926V41.1392H135.348V42.8736H134.77V44.6076H134.192V46.9192H133.614V56.1685H134.192V57.3243H134.77V59.6366H135.348V60.7924H135.926V61.9489H137.082V63.1051H137.66V63.6829H138.238V65.417H138.816V65.995H139.972V66.5732H140.55V67.1515H141.128V67.729H141.706V68.3072H142.285V68.8855H142.863V70.0412H143.44V70.6195H144.019V71.1973H145.174V71.7756H145.753V72.354H146.908V73.5098H147.487V74.088H148.643V75.2437H149.221V75.822H149.799V76.3999H150.377V76.9779H150.955V78.134H152.111V78.7119H152.689V79.2906H153.268V80.446H153.845V81.602H155.002V82.759H155.579V83.914H156.158V84.493H156.736V85.071H157.314V86.227H157.892V87.383H158.47V87.961H159.048V90.273H159.626V90.851H160.204V93.164H160.782V93.741H162.516V89.695H163.095V87.383H163.673V81.025H163.095V75.822H162.516V75.2437H161.938V73.5098H161.36V71.7756H160.204V70.6195H159.626V68.8855H158.47V67.729H157.892V66.5732H157.314V65.995H156.736V65.417H155.579V64.2608H154.424V63.1051H153.845V62.5264H153.268V61.9489H152.111V60.7924H150.955V59.6366H149.799V59.0583H149.221V57.9025H148.065V57.3243H147.487V56.1685H146.908V55.5899H146.331V55.0123H145.174V54.434H144.597V53.2783H144.019V52.7H143.44V51.5443H142.863V50.3873H142.285V49.2319H141.706V46.9192H141.128V45.7635H140.55V44.6076H139.972V42.8736H139.394V41.1392H138.816V38.8272H138.238V38.2487H137.66V38.8272Z" fill="#FF0000"/>
<path fill-rule="evenodd" clip-rule="evenodd" d="M138.816 138.251H158.47V131.314H138.816V138.251Z" fill="#FF0000"/>
<path fill-rule="evenodd" clip-rule="evenodd" d="M139.394 147.499H157.892V141.141H139.394V147.499Z" fill="#FF0000"/>
<path d="M22.109 203.099H34.834C40.49 203.099 44.603 202.327 47.046 200.656C49.488 199.114 50.645 196.414 50.645 192.815C50.645 189.087 49.359 186.26 46.789 184.46C44.218 182.661 40.233 181.761 34.706 181.761H22.109V203.099ZM33.421 166.079C37.405 166.079 40.362 165.307 42.29 163.765C44.346 162.351 45.246 160.037 45.246 156.952C45.246 153.611 44.218 151.039 42.29 149.369C40.362 147.697 37.405 146.926 33.421 146.926H22.109V166.079H33.421ZM0 219.166V131.373H32.392C43.961 131.373 52.701 133.301 58.486 137.029C64.399 140.885 67.355 146.412 67.355 153.867C67.355 157.724 66.327 161.194 64.399 164.151C62.342 167.107 59.514 169.421 55.658 171.092C61.828 173.02 66.455 175.848 69.412 179.704C72.368 183.432 73.911 188.188 73.911 193.972C73.911 202.456 71.083 208.754 65.299 212.867C59.514 217.109 50.773 219.166 39.205 219.166H0Z" fill="black"/>
<path d="M31.5571 241.484C31.2431 240.392 30.8021 239.428 30.2331 238.59C29.6651 237.737 28.9691 237.019 28.1461 236.436C27.3391 235.838 26.4111 235.381 25.3641 235.067C24.3321 234.753 23.1881 234.596 21.9311 234.596C19.5831 234.596 17.5191 235.18 15.7391 236.346C13.9741 237.513 12.5981 239.211 11.6101 241.439C10.6231 243.653 10.1301 246.361 10.1301 249.562C10.1301 252.763 10.6161 255.485 11.5881 257.729C12.5601 259.972 13.9361 261.685 15.7161 262.867C17.4961 264.034 19.5981 264.617 22.0211 264.617C24.2201 264.617 26.0971 264.228 27.6531 263.45C29.2231 262.657 30.4201 261.543 31.2431 260.107C32.0801 258.671 32.4991 256.973 32.4991 255.014L34.4741 255.306H22.6271V247.991H41.8561V253.78C41.8561 257.818 41.0031 261.289 39.2981 264.191C37.5921 267.077 35.2441 269.306 32.2521 270.877C29.2611 272.432 25.8351 273.21 21.9761 273.21C17.6681 273.21 13.8841 272.26 10.6231 270.361C7.36209 268.446 4.81909 265.731 2.99509 262.216C1.18479 258.686 0.279785 254.498 0.279785 249.651C0.279785 245.927 0.818287 242.606 1.89529 239.689C2.98709 236.758 4.51309 234.275 6.47209 232.24C8.43209 230.206 10.7131 228.658 13.3161 227.596C15.9181 226.534 18.7381 226.003 21.7741 226.003C24.3771 226.003 26.8001 226.384 29.0441 227.147C31.2881 227.895 33.2771 228.957 35.0121 230.333C36.7621 231.709 38.1911 233.347 39.2981 235.247C40.4051 237.132 41.1151 239.211 41.4291 241.484H31.5571ZM49.1531 272.582V226.631H67.2821C70.7531 226.631 73.7141 227.252 76.1671 228.493C78.6351 229.72 80.5131 231.462 81.7991 233.721C83.1001 235.965 83.7511 238.605 83.7511 241.641C83.7511 244.693 83.0931 247.318 81.7771 249.517C80.4601 251.701 78.5531 253.376 76.0551 254.543C73.5721 255.709 70.5661 256.293 67.0351 256.293H54.8971V248.485H65.4651C67.3201 248.485 68.8601 248.23 70.0871 247.722C71.3131 247.213 72.2261 246.45 72.8241 245.433C73.4371 244.416 73.7441 243.152 73.7441 241.641C73.7441 240.116 73.4371 238.829 72.8241 237.782C72.2261 236.735 71.3061 235.942 70.0641 235.404C68.8381 234.85 67.2901 234.574 65.4201 234.574H58.8681V272.582H49.1531ZM73.9691 251.671L85.3891 272.582H74.6641L63.4901 251.671H73.9691ZM132.843 249.607C132.843 254.617 131.893 258.88 129.994 262.396C128.109 265.911 125.536 268.596 122.275 270.451C119.03 272.29 115.38 273.21 111.326 273.21C107.243 273.21 103.578 272.283 100.332 270.428C97.0861 268.573 94.5211 265.888 92.6361 262.373C90.7511 258.858 89.8091 254.602 89.8091 249.607C89.8091 244.596 90.7511 240.333 92.6361 236.817C94.5211 233.302 97.0861 230.625 100.332 228.785C103.578 226.93 107.243 226.003 111.326 226.003C115.38 226.003 119.03 226.93 122.275 228.785C125.536 230.625 128.109 233.302 129.994 236.817C131.893 240.333 132.843 244.596 132.843 249.607ZM122.993 249.607C122.993 246.361 122.507 243.623 121.535 241.395C120.578 239.166 119.224 237.476 117.474 236.324C115.724 235.172 113.675 234.596 111.326 234.596C108.978 234.596 106.928 235.172 105.178 236.324C103.428 237.476 102.067 239.166 101.095 241.395C100.138 243.623 99.6591 246.361 99.6591 249.607C99.6591 252.852 100.138 255.59 101.095 257.818C102.067 260.047 103.428 261.737 105.178 262.889C106.928 264.041 108.978 264.617 111.326 264.617C113.675 264.617 115.724 264.041 117.474 262.889C119.224 261.737 120.578 260.047 121.535 257.818C122.507 255.59 122.993 252.852 122.993 249.607ZM168.423 226.631H178.138V256.472C178.138 259.823 177.338 262.755 175.737 265.268C174.152 267.781 171.93 269.74 169.073 271.146C166.216 272.537 162.888 273.233 159.089 273.233C155.275 273.233 151.939 272.537 149.082 271.146C146.225 269.74 144.004 267.781 142.418 265.268C140.833 262.755 140.04 259.823 140.04 256.472V226.631H149.755V255.642C149.755 257.392 150.137 258.948 150.899 260.309C151.677 261.67 152.769 262.74 154.175 263.517C155.581 264.295 157.219 264.684 159.089 264.684C160.974 264.684 162.612 264.295 164.003 263.517C165.409 262.74 166.493 261.67 167.256 260.309C168.034 258.948 168.423 257.392 168.423 255.642V226.631ZM186.131 272.582V226.631H204.26C207.746 226.631 210.715 227.297 213.168 228.628C215.621 229.944 217.491 231.777 218.777 234.125C220.078 236.458 220.729 239.151 220.729 242.202C220.729 245.254 220.071 247.946 218.755 250.28C217.438 252.613 215.531 254.43 213.033 255.732C210.55 257.033 207.544 257.684 204.014 257.684H192.458V249.898H202.443C204.313 249.898 205.853 249.577 207.065 248.933C208.292 248.275 209.204 247.37 209.802 246.219C210.416 245.052 210.722 243.713 210.722 242.202C210.722 240.677 210.416 239.345 209.802 238.209C209.204 237.057 208.292 236.167 207.065 235.539C205.838 234.895 204.283 234.574 202.398 234.574H195.846V272.582H186.131Z" fill="black"/>
</svg>
